<svg xmlns="http://www.w3.org/2000/svg" viewBox="0 0 1000 1000"><defs><style>.cls-1{fill:#EB6127;}</style></defs><g id="Plan_de_travail_6" data-name="Plan de travail 6"><path class="cls-1" d="M952.77,379.29c-6.2-49.63-27-82.46-27.9-83.83l-.75-1.17L780.55,139C723.6,74.36,647.11,55.65,559.34,84.83c-60.83,20.25-106.36,56.64-112.76,61.9-41.17-3.2-85,8.78-108.64,32.46-35,35-114.87,123.81-100.46,192.24,2.35,11.16,5.18,22.91,7.93,34.25,9.4,38.81,20,82.43,10.94,106.51L223,535.81l0,0c-26,5.16-47.61,23.42-62.07,39.31l-89.37,88L71,664c-15.84,20.36-34.42,71.92,8.64,121.3l.39.45L204.56,908.59l0,0,25.84,26.32.85.8c22.77,20,46,26.83,66.51,26.83,23.79,0,43.78-9.22,54.76-17.69l.84-.64,88.37-89c19-17.16,30-34,35.76-49.31,0,0,0,0,0,0a77.81,77.81,0,0,0,5.24-29.41l2-11c2.53-2.68,17-13.94,78.67-8.51,9,.8,17.81,1.17,26.31,1.17,89,0,147.57-40,150.25-41.82l1.16-.82L890.69,565.87l.81-.85C952.51,494.37,958.49,425,952.77,379.29ZM420.13,831.79l-.34.31-70,70.47-146-129.81a58.14,58.14,0,0,1-12.54-21.06c-4.79-15.1-.55-29.11,12.95-42.85L233.51,678l.42-.37.54-.74c.72-.82,6.63-7.29,15.08-7.61,10-.38,20.14,7.91,26.87,14.92l147.66,143.9C422.82,829.33,421.5,830.55,420.13,831.79ZM444,803,299.18,661.94c-16.56-17.13-33.88-25.36-51.58-24.42-21.19,1.13-34.36,15.17-37.56,19L181.4,686.64c-16.12,16.43-24.15,34.65-23.9,54.17.42,31.58,23.31,54,24.28,55l.24.21L325.85,923.85a67.31,67.31,0,0,1-18.09,6c-19.17,3.35-37.69-2.6-55-17.68l-26-25.79-97.4-96.56-26.09-25.86c-15-17.39-20.88-35.92-17.46-55.09a66.68,66.68,0,0,1,9.87-24.67l88-86.66.62-.65c37.92-41.79,64.59-29.58,69.64-26.65l56.58,58.38,140.42,149C451,784.31,449.47,792.9,444,803Zm423.8-259.25-147,147c-8.63,5.49-69.35,41.91-154.56,34.42-48.06-4.24-80.38,0-98.34,12.86l-59.27-57.22-137.9-139.7c19.6-33.59,17.77-93,5.68-143-2.82-11.63-5.48-22.62-7.73-33.31-9.15-43.46,41.44-112.8,91.83-163.19,23.17-23.17,78.43-30.86,115.93-16.13,22.22,8.73,33.88,23.3,34.62,43.34,2.5,67.28-74.95,107.16-75.7,107.55l14.24,28.47a212.06,212.06,0,0,0,47.27-34.47c31.47-30.4,47.37-65.92,46-102.72-1.22-32.91-20.69-58.41-54.81-71.82l-.1,0c18.52-12.43,47.56-29.52,81.47-40.81,75.81-25.22,138.86-10,187.39,45.12L898.72,313.69c3.25,5.56,18.13,32.66,22.64,70.91C928,441.16,910,494.69,867.77,543.77Z"/><polygon class="cls-1" points="226.72 886.35 129.32 789.79 129.34 789.77 226.72 886.35"/></g></svg>