<svg xmlns="http://www.w3.org/2000/svg" viewBox="0 0 1000 1000"><defs><style>.cls-1{fill:none;}</style></defs><g id="Plan_travail_2" data-name="Plan travail 2"><path class="cls-1" d="M880.44,507.27c31.37-60.38,47.22-117.35,47.22-169.74C927.66,200.29,816,88.65,678.8,88.65c-38,0-74.91,11.33-109.79,33.7-26.41,16.93-50.93,40-71.71,67.46-20.78-27.43-45.3-50.53-71.72-67.46-34.87-22.37-71.81-33.7-109.79-33.7-137.22,0-248.86,111.64-248.86,248.88,0,52.75,16.07,110.13,47.86,171H13.88v27.7H130.19c1.25,2.13,2.53,4.25,3.82,6.39,35.1,58,83.92,119.11,145.13,181.61C383,830.25,488.26,905,489.31,905.71l8,5.64,8-5.64c1-.75,106.35-75.46,210.16-181.52,61.21-62.5,110-123.61,145.13-181.61q2.31-3.81,4.53-7.6H970.77V507.27ZM94.64,337.53c0-121.95,99.2-221.17,221.15-221.17,63.66,0,125.62,38.28,170,105l11.55,17.37,11.54-17.37c44.35-66.75,106.3-105,170-105,122,0,221.15,99.22,221.15,221.17,0,51.53-17.11,108.54-50.94,169.74H764.13l-33.07,41.56L673,235.16,632.69,484.42l-63.17-1-31,92.37-62-303.75L410.64,489.83,324,410,222.93,508.49H146.25C112,446.83,94.64,389.42,94.64,337.53ZM696,704.52C610.27,792.09,523.54,858,497.3,877.27,471.08,858,384.6,792.32,298.94,704.82,242,646.68,196.2,590,162.61,536.19H234.2l90.32-88,99.83,91.95,47-155.15L532,682.36l57.33-170.92,66.88,1.05,18.61-115.15,40,216.29L777.49,535h55.25C799.12,589.07,753.14,646.06,696,704.52Z"/></g></svg>