<svg xmlns="http://www.w3.org/2000/svg" viewBox="0 0 1000 1000"><defs><style>.cls-1{fill:none;}</style></defs><g id="Plan_de_travail_5" data-name="Plan de travail 5"><rect class="cls-1" x="53.04" y="691.92" width="29.76" height="244.96"/><polygon class="cls-1" points="515.51 691.92 515.51 936.87 485.75 936.87 485.75 829.28 173.05 829.28 173.05 936.87 143.28 936.87 143.28 691.92 173.05 691.92 173.05 799.51 485.75 799.51 485.75 691.92 515.51 691.92"/><rect class="cls-1" x="579.46" y="691.92" width="29.76" height="244.96"/><path class="cls-1" d="M895.23,414.7l-.53-.95-.66-.87q-6.74-8.89-13.86-17.29V176.52l0-.74c-.11-1.36-2.66-33.82-25.17-67C817.47,53.47,755,40.15,709.25,38.73h-3l-194.3,0h-2.7l-.31,0c-45.78,1.42-108.22,14.74-145.72,70.05-22.51,33.18-25.08,65.64-25.18,67l0,229.69h.22c-.69,1.13-1.36,2.26-2,3.39-56.08,95.06-53,181-40.62,236.3,13.49,60.06,40.26,97.46,41.39,99l8.73,12,24.06-17.42-8.68-12.06c-.23-.34-24.77-34.89-36.73-89.34C308.41,565,321,493.14,361.83,424c22.89-38.79,54.71-70.05,94.55-92.89,38.13-21.87,82.51-34.84,128.36-37.52a322.41,322.41,0,0,1,151.83,28.78C788.39,346,833.17,382.21,869.68,430c44,80.4,55.76,157.3,34.94,228.56-25.6,87.62-94.48,143.11-117.12,157H663v29.76H795.3l3.34-1.82c9.63-5.26,35-22.82,61.86-51.69,34.5-37,59.63-80.23,72.69-124.94C956.39,587.51,943.63,502.65,895.23,414.7ZM806.5,328.13a365,365,0,0,0-57.58-32.86A352.12,352.12,0,0,0,583,263.86c-50.43,2.94-99.33,17.26-141.44,41.42a289.86,289.86,0,0,0-25.07,16.13V194.27c.67-5.23,11.28-69.13,116.43-71.94H690.08c105.33,2.81,115.69,66.05,116.42,71.92Zm20.37,15.26V193.71l0-.9c-.08-.94-2.22-23.07-20.75-45.27-30.05-36-79.56-44.65-115.81-45.57H532.71c-36.23.92-85.73,9.57-115.78,45.57-18.53,22.2-20.68,44.33-20.77,45.27l0,144.6a287.76,287.76,0,0,0-37.74,39.22V177c.31-3.17,3.51-30.4,22.2-57.53C406.89,81.27,450.24,61,509.42,59.08H708.78C768,61,811.33,81.27,837.62,119.45c18.72,27.2,21.9,54.45,22.19,57.51V373.27A377.8,377.8,0,0,0,826.87,343.39Z"/><polygon class="cls-1" points="706.26 38.71 706.26 38.73 511.96 38.71 706.26 38.71"/></g></svg>