<svg xmlns="http://www.w3.org/2000/svg" viewBox="0 0 1000 1000"><defs><style>.cls-1{fill:none;}</style></defs><g id="Plan_travail_1" data-name="Plan travail 1"><path class="cls-1" d="M918.59,571.92l-1-1.67-220-197.45h-109A184.5,184.5,0,0,0,679,214.18c0-101.69-82.72-184.41-184.41-184.41S310.22,112.49,310.22,214.18A184.48,184.48,0,0,0,400.68,372.8H292.31l-220,197.45-1,1.67c-1.54,2.55-37.15,63.23.57,116l.57.8,176.27,180.8,3.95.76a95.9,95.9,0,0,0,16.17,1.44v98.49h452.2V871.74a95.85,95.85,0,0,0,16.16-1.44l3.95-.76,176.28-180.8.57-.8C955.72,635.15,920.12,574.47,918.59,571.92ZM336,214.18c0-87.47,71.15-158.62,158.62-158.62s158.63,71.15,158.63,158.62S582.1,372.8,494.63,372.8,336,301.65,336,214.18Zm120.8,184.41v-3.91q6.54,1.38,13.22,2.28a186.61,186.61,0,0,0,24.6,1.63h136L494.75,646,361.82,398.59Zm41,299.22,30.87,25.47-42.77,64.64L456,765.11Zm399.79-25.64-169,173.32c-9.18,1-33.42,1.86-50.26-12.43-12.54-10.64-19-28.13-19.33-52.06L806.33,631.38,693.06,524.25V709.67L633.37,770.3l-.12,5.11c-.77,34.77,8.85,60.84,28.58,77.47a79,79,0,0,0,33.44,16.22v75.34H294.64V869.1a79,79,0,0,0,33.44-16.22c19.74-16.63,29.34-42.7,28.58-77.47l-.12-5.11-59.68-60.63V524.25L183.59,631.38,330.91,781c-.3,23.93-6.79,41.42-19.33,52.06-16.86,14.31-41.12,13.4-50.27,12.43l-169-173.32c-24.48-35.28-4.41-76.82.25-85.44L302.19,398.59h30.36l148.77,276.9-53.42,86a12.9,12.9,0,0,0,3.14,17l50.17,38.28a12.88,12.88,0,0,0,18.57-3.13l56.78-85.82A12.9,12.9,0,0,0,554,710.78l-45-37.15,151-275h27.74L897.31,586.7a112,112,0,0,1,10.22,28.76C912,637.2,908.6,656.28,897.58,672.17ZM718.85,683.48V584.12L769.49,632ZM271.07,584.12v99.36L220.42,632Z"/></g></svg>