<svg id="Plan_travail_8" data-name="Plan travail 8" xmlns="http://www.w3.org/2000/svg" viewBox="0 0 1000 1000"><defs><style>.cls-1{fill:none;}</style></defs><path class="cls-1" d="M705.41,429.34c-1.34-10.35-16.75-117.2-96-192.83l-2.6-2.47-3.6-.21c-3.14-.19-77.22-3.57-126.77,57.24l.77.62c.62,4.93,4.49,32.06,17.07,67.3L209,476a291.29,291.29,0,0,0-45-55.41l-2.61-2.47-3.59-.21c-3.13-.18-77.21-3.57-126.78,57.24l.78.64c1.33,10.35,16.75,117.2,96,192.82l2.61,2.49,3.59.2c.37,0,1.71.08,3.88.08,16.33,0,79.15-3.66,122.9-57.33l-.77-.62c-.63-4.91-4.46-31.61-16.78-66.4l-1.9.78-7.41-18.08,2.32-1A358.43,358.43,0,0,0,219.08,493L501.32,377.22A356.18,356.18,0,0,0,518.57,413L236.25,528.75c2.59,6.28,4.91,12.39,7,18.25L528.67,429.93a291.29,291.29,0,0,0,44.54,54.59l2.6,2.49,3.6.2c.36,0,1.72.09,3.89.09,16.32,0,79.15-3.66,122.88-57.33ZM239.46,608.71c-37.1,39.36-87.41,42.87-100.91,43.08C76.17,590.39,56.92,506,52.34,480.45c37.11-39.37,87.4-42.89,100.91-43.08C215.62,498.76,234.88,583.12,239.46,608.71Zm344.48-141C521.57,406.34,502.31,322,497.73,296.39c37.11-39.36,87.41-42.88,100.92-43.07,62.37,61.39,81.62,145.75,86.21,171.33C647.76,464,597.45,467.52,583.94,467.73Z"/><path class="cls-1" d="M243.24,547l-1.9.78-7.41-18.08,2.32-1C238.84,535,241.16,541.14,243.24,547Z"/><path class="cls-1" d="M631.68,411.79c0-.57-5.53-57.5-44.14-116.88l16.38-10.65c41.4,63.68,47,123.31,47.23,125.82Z"/><path class="cls-1" d="M243.24,547l-1.9.78-7.41-18.08,2.32-1C238.84,535,241.16,541.14,243.24,547Z"/><path class="cls-1" d="M978.5,577.69c-1.18-10.28-15.2-117.38-93.5-194.07l-2.57-2.51-3.59-.25c-3.13-.22-77.16-4.59-127.51,55.58l.76.63h0c.57,5,4.09,32.13,16.21,67.49L481.56,617.84a291,291,0,0,0-44.31-56l-2.58-2.51-3.59-.25c-3.13-.21-77.17-4.57-127.51,55.58l.75.64c1.2,10.37,15.23,117.42,93.51,194.06l2.58,2.53,3.58.24c.46,0,2.34.15,5.41.15,18.38,0,78.94-4.16,122.11-55.73l-.76-.64c-.57-4.94-4-31.68-15.92-66.62L801.78,576a290.91,290.91,0,0,0,43.81,55.16l2.57,2.53,3.59.24c.45,0,2.34.15,5.4.15,18.38,0,79-4.16,122.11-55.73Zm-569.7,215c-61.58-62.2-79.74-146.81-84-172.44,37.64-38.89,88-41.74,101.48-41.77,61.56,62.19,79.72,146.8,84,172.45C472.63,789.84,422.29,792.7,408.8,792.72ZM508.07,671a353.41,353.41,0,0,0-16.69-36L775.12,522.9a352.35,352.35,0,0,0,16.78,36Zm348.48-56.48C795,552.28,776.81,467.66,772.56,442c37.64-38.87,88-41.72,101.48-41.75,61.57,62.19,79.74,146.8,84,172.45C920.39,611.61,870.06,614.47,856.55,614.49Z"/><path class="cls-1" d="M905,559.17c0-.57-4.79-57.56-42.62-117.44l16.52-10.44c40.57,64.21,45.4,123.92,45.59,126.43Z"/></svg>