<svg xmlns="http://www.w3.org/2000/svg" viewBox="0 0 1000 1000"><defs><style>.cls-1,.cls-2{fill:none;}.cls-1{stroke:#fff;stroke-miterlimit:10;}</style></defs><g id="Plan_travail_4" data-name="Plan travail 4"><path class="cls-1" d="M969.38,315.53c-33.45-31.77-68-30-91.14-22.92a110.16,110.16,0,0,0-16.47,6.57V269.92A14.74,14.74,0,0,0,857,259c-43.22-39.37-87.72-37.21-117.46-28.47A155.91,155.91,0,0,0,686,258.76a14.76,14.76,0,0,0-5.09,11.16V441.41H316.58V269a14.8,14.8,0,0,0-4.83-10.92C268.54,218.68,224,220.84,194.3,229.57a155.79,155.79,0,0,0-53.51,28.25A14.73,14.73,0,0,0,135.7,269v26.61c-25-12.67-48.81-10.36-66.18-5a119,119,0,0,0-41.16,22.66,14.82,14.82,0,0,0-4.87,11v372.2a14.8,14.8,0,0,0,4.21,10.33c20.66,21.12,43,31.83,66.36,31.83.93,0,1.88,0,2.82-.07,15.16-.56,28.37-5.61,38.82-11.58v23.45a14.77,14.77,0,0,0,4.44,10.56c26.81,26.31,55.59,39.62,85.6,39.62,1.24,0,2.47,0,3.71-.06,48.95-1.79,82.06-38.78,83.44-40.35a14.83,14.83,0,0,0,3.69-9.77V583.42H710.46V277.23a129.32,129.32,0,0,1,37.37-18.34c30.7-9,59.06-3,84.38,17.78V698.45a14.72,14.72,0,0,0,4.22,10.32A121.33,121.33,0,0,0,861.77,729c13.19,7.73,26.91,11.62,41,11.62.93,0,1.86,0,2.81-.06,38.14-1.39,63.82-31.28,64.9-32.56a14.74,14.74,0,0,0,3.48-9.53V326.24A14.79,14.79,0,0,0,969.38,315.53ZM135.7,690.39c-6.52,6.11-21.51,18-40.11,18.57-14.24.42-28.53-5.86-42.55-18.81V331.39a90.22,90.22,0,0,1,26-12.83c20.49-6,39.51-1.88,56.65,12.26ZM287,744.26c-8.48,7.9-30.66,25.74-58.89,26.69-21.31.7-42.42-8.37-62.87-27V276.2c16.5-11.88,69.56-43.29,121.76-.48Zm393.89-190.4H322.32V471H680.91ZM944.43,692.44c-6.54,6.11-21.52,18-40.12,18.57-14.26.47-28.53-5.86-42.54-18.79V333.45a90.17,90.17,0,0,1,26-12.84c20.49-6,39.53-1.88,56.67,12.28Z"/><path class="cls-2" d="M836.43,708.77a14.72,14.72,0,0,1-4.22-10.32V745.2c-8.46,7.91-30.64,25.76-58.87,26.7-21.3.73-42.42-8.36-62.88-26.94V583.42H680.91v167.9a14.78,14.78,0,0,0,4.42,10.54c26.83,26.31,55.61,39.62,85.61,39.62,1.23,0,2.47,0,3.72-.06,48.94-1.79,82-38.76,83.42-40.35a14.71,14.71,0,0,0,3.69-9.75V729A121.33,121.33,0,0,1,836.43,708.77Z"/></g></svg>