<svg xmlns="http://www.w3.org/2000/svg" viewBox="0 0 1000 1000"><defs><style>.cls-1{fill:none;}</style></defs><g id="Plan_travail_7" data-name="Plan travail 7"><path class="cls-1" d="M622.48,326.16c0,44.18-15.18,89.16-35.45,129.45-5.28,10.49-10.9,20.66-16.69,30.41a617.94,617.94,0,0,1-36,53.9c-11,14.82-21.25,27.33-29.39,36.83q-4,4.69-7.31,8.38c-2.15-2.78-4.58-6-7.26-9.56-5.53-7.42-12.09-16.5-19.18-26.92a706.67,706.67,0,0,1-40.13-66.36c-5.46-10.28-10.75-21-15.71-32-18.58-41.21-32.5-86.58-32.41-129.94,0-4.78.18-9.56.52-14.33a249,249,0,0,1,3.64-28.91C404.68,182,472.87,95,498,65.59a467.34,467.34,0,0,1,57.55,67.49c23.91,34.14,51.41,83.84,62.24,142.57a282.19,282.19,0,0,1,3.82,28.81Q622.45,315.15,622.48,326.16Z"/><path class="cls-1" d="M959.43,591.4c-1.15-1.3-28.49-32.26-70.47-63.82C854.28,501.5,820.58,483,788.22,472.35a433.09,433.09,0,0,0,40.56-80.14c22.47-58.27,27.64-104.83,27.85-106.77a14.34,14.34,0,0,0-11.51-15.59c-2-.38-48.31-9.21-109.94-8.64q-48.21.48-89.49,8.19c-9.74-51.87-32.5-104-67.21-153.44-35.63-50.71-70.93-80.5-72.41-81.74a14.3,14.3,0,0,0-19.59,1.13c-1.34,1.42-33.34,35.41-65.75,87.32-32.21,51.56-52.81,101.06-61.59,147.74q-43.41-8.69-94.79-9.2c-61.63-.55-108,8.26-109.94,8.64a14.34,14.34,0,0,0-11.51,15.59c.21,1.94,5.38,48.5,27.85,106.77a433.08,433.08,0,0,0,39.61,78.68c-33.76,10.43-69,29.38-105.33,56.69-42,31.56-69.32,62.52-70.46,63.82a14.29,14.29,0,0,0-.74,18c1,1.4,25.9,34.72,67.86,68.12,55.31,44,114.58,67.19,171.62,67.19h2.81c64.44-.88,127.76-41.15,172.81-78.5V946.69a14.32,14.32,0,0,0,28.64,0v-306c7.54-7.15,14.08-13.72,19.43-19.29,6,6.25,13.49,13.76,22.23,21.93V877.43a14.32,14.32,0,0,0,28.64,0v-209q4.29,3.52,8.8,7c44,34.44,102.13,68.36,161.2,69.16h2.82c57,0,116.32-23.2,171.62-67.19,42-33.4,66.83-66.72,67.87-68.12A14.31,14.31,0,0,0,959.43,591.4ZM649.73,298c30.49-5.84,60.25-7.83,85.15-8.1a616.9,616.9,0,0,1,91.25,5.94,470.64,470.64,0,0,1-24.36,86.85,402.1,402.1,0,0,1-42.91,82.07c-.35.53-.73,1.06-1.09,1.58-5.74,8.26-12,16.48-18.73,24.5a283.7,283.7,0,0,1-61.29,54.8A217.62,217.62,0,0,1,634.9,567a286.79,286.79,0,0,1-27.36,8.65c-24.67,6.53-50.08,10.07-74,11.76,6.41-7.7,13.66-16.75,21.3-26.91s15.84-21.6,24-33.91c2.07-3.11,4.07-6.21,6-9.3q5.37-8.43,10.32-16.76,3.94-6.67,7.61-13.28c32.14-57.7,48.34-111.73,48.3-161.11Q651.09,312.09,649.73,298ZM461.34,616.42c-40,38.54-113.83,98.63-185.59,99.6h-2.5c-103,0-184.54-85.79-208.93-114.49C87,578.24,153.7,515.17,227.8,495.78c22.73,29.75,49.05,54.6,78.29,73.78a250.05,250.05,0,0,0,52.16,25.69q45.31,16.43,103.64,20.62C461.71,616.07,461.52,616.25,461.34,616.42ZM392,575.63c-9.26-2.44-18.42-5.31-27.36-8.65a217.62,217.62,0,0,1-42.85-21.39,283.61,283.61,0,0,1-61.65-55.24,330.47,330.47,0,0,1-20-26.5,402.12,402.12,0,0,1-42.33-81.21,470.85,470.85,0,0,1-24.36-86.85,621.13,621.13,0,0,1,91.25-5.94c26.38.29,58.21,2.5,90.59,9.18q-.9,10.74-.93,21.25c-.11,48.49,14.86,103,44.57,162.35q6.39,12.75,13.67,25.79c1.1,2,2.23,4,3.37,6,1.43,2.52,2.9,5,4.37,7.57,10.27,17.5,20.5,33.25,29.73,46.63,4.73,6.84,9.18,13.07,13.23,18.6C440.14,585.41,415.73,581.92,392,575.63Zm113,1.12q-4,4.69-7.31,8.38c-2.15-2.78-4.58-6-7.26-9.56-5.53-7.42-12.09-16.5-19.18-26.92a706.67,706.67,0,0,1-40.13-66.36c-5.46-10.28-10.75-21-15.71-32-18.58-41.21-32.5-86.58-32.41-129.94,0-4.78.18-9.56.52-14.33a249,249,0,0,1,3.64-28.91C404.68,182,472.87,95,498,65.59a467.34,467.34,0,0,1,57.55,67.49c23.91,34.14,51.41,83.84,62.24,142.57a282.19,282.19,0,0,1,3.82,28.81q.88,10.69.91,21.7c0,44.18-15.18,89.16-35.45,129.45-5.28,10.49-10.9,20.66-16.69,30.41a617.94,617.94,0,0,1-36,53.9C523.32,554.74,513.08,567.25,504.94,576.75ZM720.75,716h-2.48c-71.51-1-145.21-60.82-185.32-99.35l-.45-.45c40.92-2.55,77.26-9.55,108.77-21a249.89,249.89,0,0,0,52.17-25.69c28.82-18.91,54.79-43.34,77.32-72.53,72.26,20.72,136.7,81.69,158.92,104.51C905.29,630.25,823.77,716,720.75,716Z"/><path class="cls-1" d="M461.89,615.87c-.18.2-.37.38-.55.55-40,38.54-113.83,98.63-185.59,99.6h-2.5c-103,0-184.54-85.79-208.93-114.49C87,578.24,153.7,515.17,227.8,495.78c22.73,29.75,49.05,54.6,78.29,73.78a250.05,250.05,0,0,0,52.16,25.69Q403.56,611.68,461.89,615.87Z"/><path class="cls-1" d="M463.25,587.19c-23.11-1.78-47.52-5.27-71.26-11.56-9.26-2.44-18.42-5.31-27.36-8.65a217.62,217.62,0,0,1-42.85-21.39,283.61,283.61,0,0,1-61.65-55.24,330.47,330.47,0,0,1-20-26.5,402.12,402.12,0,0,1-42.33-81.21,470.85,470.85,0,0,1-24.36-86.85,621.13,621.13,0,0,1,91.25-5.94c26.38.29,58.21,2.5,90.59,9.18q-.9,10.74-.93,21.25c-.11,48.49,14.86,103,44.57,162.35q6.39,12.75,13.67,25.79c1.1,2,2.23,4,3.37,6,1.43,2.52,2.9,5,4.37,7.57,10.27,17.5,20.5,33.25,29.73,46.63C454.75,575.43,459.2,581.66,463.25,587.19Z"/><path class="cls-1" d="M929.68,601.54C905.29,630.25,823.77,716,720.75,716h-2.48c-71.51-1-145.21-60.82-185.32-99.35l-.45-.45c40.92-2.55,77.26-9.55,108.77-21a249.89,249.89,0,0,0,52.17-25.69c28.82-18.91,54.79-43.34,77.32-72.53C843,517.75,907.46,578.72,929.68,601.54Z"/><path class="cls-1" d="M826.13,295.79a470.64,470.64,0,0,1-24.36,86.85,402.1,402.1,0,0,1-42.91,82.07c-.35.53-.73,1.06-1.09,1.58-5.74,8.26-12,16.48-18.73,24.5a283.7,283.7,0,0,1-61.29,54.8A217.62,217.62,0,0,1,634.9,567a286.79,286.79,0,0,1-27.36,8.65c-24.67,6.53-50.08,10.07-74,11.76,6.41-7.7,13.66-16.75,21.3-26.91s15.84-21.6,24-33.91c2.07-3.11,4.07-6.21,6-9.3q5.37-8.43,10.32-16.76,3.94-6.67,7.61-13.28c32.14-57.7,48.34-111.73,48.3-161.11q0-14-1.39-28.17c30.49-5.84,60.25-7.83,85.15-8.1A616.9,616.9,0,0,1,826.13,295.79Z"/><path class="cls-1" d="M533.55,961a14.79,14.79,0,0,1-2.8-.29,13.93,13.93,0,0,1-2.67-.81,14.95,14.95,0,0,1-4.66-3.11,14.08,14.08,0,0,1-3.09-4.64,13.81,13.81,0,0,1-.81-2.68,13.61,13.61,0,0,1,0-5.59,14.34,14.34,0,0,1,.81-2.69,14.6,14.6,0,0,1,1.31-2.47,14.9,14.9,0,0,1,1.78-2.17,13.42,13.42,0,0,1,2.19-1.78,15,15,0,0,1,2.47-1.33,17.5,17.5,0,0,1,2.67-.81,14.65,14.65,0,0,1,5.6,0,17.5,17.5,0,0,1,2.67.81,15,15,0,0,1,2.47,1.33,13.42,13.42,0,0,1,2.19,1.78,14.9,14.9,0,0,1,1.78,2.17,15.36,15.36,0,0,1,1.31,2.47,14.34,14.34,0,0,1,.81,2.69,13.61,13.61,0,0,1,0,5.59,13.81,13.81,0,0,1-.81,2.68,15,15,0,0,1-1.31,2.47,14.39,14.39,0,0,1-1.78,2.17,14.95,14.95,0,0,1-4.66,3.11,13.93,13.93,0,0,1-2.67.81A14.79,14.79,0,0,1,533.55,961Z"/></g></svg>